► Senjo no Valkyria -Gallian Chronicles- ◄


Sinopsis:
Basado en el juego de RPG publicado por SEGA en el 2008. La historia se sitúa en el año 1930, Europa es dividida por el Imperio y por la Federación, las dos potencias militares dominantes que dividen el continente.Las dos fuerzas luchan por la supremacía final, con lo que inevitablemente, desencadenan la S.G.E (Segunda Guerra Europea) afectando a toda Europa.
Gallia, es una pequeña nación independiente situada entre las dos súper potencias,se enfrenta a los ataques del ejército imperial, debido a su disponibilidad de Ragnite.La armada Galliana es sobrepasada por el ejército imperial y es retirado inmediatamente. Pero justo cuando estaba a punto de rendirse, un pelotón liderado por un inusual lider, derrota al ejército imperial.
El nombre del joven teniente es Welkin Gunther, y ésta es su historia.


→ Titulo: Senjo no Valkyria (戦場のヴァルキュリア -Gallian Chronicles-)
→ Categoria: Serie
→ Genero: Acción, Drama, Comedia, Romance, Militar
→ Estudio: A-1 Pictures
→ Epidosios: 26
→ Año: 2009
→ Fansub: Athena no Seinto
→ Idioma: Japones
→ Subtitulos: Español
→ Formato: MP4
→ Resolución: 848x480
→ Duración: 24 Min (c/u)
→ Aspecto: 16:9
→ Peso Aprox: 70 Mb
→ Servidor: P2P





►General
 Format                                   : MPEG-4
 Format profile                           : Base Media
 Codec ID                                 : isom
 File size                                : 70.7 MiB
 Duration                                 : 24mn 0s
 Overall bit rate mode                    : Variable
 Overall bit rate                         : 412 Kbps



 ▼Video
  ID                                       : 1
  Format                                   : AVC
  Format/Info                              : Advanced Video Codec
  Format profile                           : High@L4.1
  Format settings, CABAC                   : Yes
  Format settings, ReFrames                : 3 frames
  Codec ID                                 : avc1
  Codec ID/Info                            : Advanced Video Coding
  Duration                                 : 23mn 59s
  Bit rate                                 : 372 Kbps
  Maximum bit rate                         : 1 940 Kbps
  Width                                    : 848 pixels
  Height                                   : 480 pixels
  Display aspect ratio                     : 16:9
  Original display aspect ratio            : 16:9
  Frame rate mode                          : Constant
  Frame rate                               : 23.976 fps
  Color space                              : YUV
  Chroma subsampling                       : 4:2:0
  Bit depth                                : 8 bits
  Scan type                                : Progressive
  Bits/(Pixel*Frame)                       : 0.038
  Stream size                              : 63.9 MiB (90%)
  Title                                    : Imported with GPAC 0.4.6-DEV
  Writing library                          : x264 core 114 r1900 60ef1f8



 ▼Audio
  ID                                       : 2
  Format                                   : AAC
  Format/Info                              : Advanced Audio Codec
  Format profile                           : HE-AAC / LC
  Codec ID                                 : 40
  Duration                                 : 24mn 0s
  Bit rate mode                            : Variable
  Bit rate                                 : 37.1 Kbps
  Maximum bit rate                         : 46.0 Kbps
  Channel(s)                               : 2 channels
  Channel positions                        : Front: L R
  Sampling rate                            : 48.0 KHz / 24.0 KHz
  Compression mode                         : Lossy
  Stream size                              : 6.37 MiB (9%)



>===========► ENJOY!!	